<svg width="111" height="14" viewBox="0 0 111 14" fill="none" xmlns="http://www.w3.org/2000/svg">
<path d="M0.448 13L2.112 1.08H4.592L2.928 13H0.448ZM4.40175 13L6.06575 1.08H7.96975L13.0418 9.512L12.1298 9.752L13.3458 1.08H15.8258L14.1618 13H12.2418L7.28175 4.504L8.09775 4.264L6.88175 13H4.40175ZM17.7808 13L19.1408 3.24H16.1168L16.4208 1.08H24.9008L24.5968 3.24H21.6208L20.2608 13H17.7808ZM23.8249 13L25.4889 1.08H33.5049L33.2009 3.24H27.6649L27.2969 5.944H32.5129L32.2089 8.104H26.9929L26.6089 10.84H32.1449L31.8409 13H23.8249ZM38.7667 13.192C37.9454 13.192 37.1881 13.0533 36.4947 12.776C35.8014 12.488 35.1987 12.088 34.6867 11.576C34.1854 11.0533 33.7961 10.44 33.5187 9.736C33.2414 9.032 33.1027 8.25867 33.1027 7.416C33.1027 6.52 33.2574 5.67733 33.5667 4.888C33.8867 4.09867 34.3347 3.40533 34.9107 2.808C35.4867 2.21067 36.1641 1.74133 36.9427 1.4C37.7214 1.05867 38.5747 0.888 39.5027 0.888C40.3774 0.888 41.1507 1.03733 41.8227 1.336C42.5054 1.624 43.0707 2.01333 43.5187 2.504C43.9667 2.984 44.2761 3.51733 44.4467 4.104L42.1907 5.096C42.0201 4.52 41.7001 4.05067 41.2307 3.688C40.7614 3.31467 40.1587 3.128 39.4227 3.128C38.8681 3.128 38.3561 3.23467 37.8867 3.448C37.4281 3.66133 37.0227 3.96533 36.6707 4.36C36.3294 4.744 36.0627 5.19733 35.8707 5.72C35.6787 6.24267 35.5827 6.81333 35.5827 7.432C35.5827 8.14667 35.7107 8.77067 35.9667 9.304C36.2334 9.82667 36.6014 10.232 37.0707 10.52C37.5507 10.808 38.1107 10.952 38.7507 10.952C39.5187 10.952 40.1747 10.76 40.7187 10.376C41.2627 9.98133 41.6574 9.496 41.9027 8.92L44.0467 10.04C43.8014 10.6267 43.4227 11.16 42.9107 11.64C42.4094 12.1093 41.8067 12.488 41.1027 12.776C40.3987 13.0533 39.6201 13.192 38.7667 13.192ZM44.5761 13L46.2401 1.08H48.7201L48.0001 6.232H52.6401L53.3601 1.08H55.8401L54.1761 13H51.6961L52.3361 8.392H47.6961L47.0561 13H44.5761ZM55.6549 13L57.3189 1.08H59.2229L64.2949 9.512L63.3829 9.752L64.5989 1.08H67.0789L65.4149 13H63.4949L58.5349 4.504L59.3509 4.264L58.1349 13H55.6549ZM73.3859 13.192C72.5219 13.192 71.7219 13.048 70.9859 12.76C70.2605 12.472 69.6259 12.0667 69.0819 11.544C68.5485 11.0213 68.1325 10.4133 67.8339 9.72C67.5352 9.016 67.3859 8.248 67.3859 7.416C67.3859 6.488 67.5565 5.62933 67.8979 4.84C68.2392 4.05067 68.7139 3.36267 69.3219 2.776C69.9299 2.17867 70.6339 1.71467 71.4339 1.384C72.2445 1.05333 73.1192 0.888 74.0579 0.888C74.9325 0.888 75.7325 1.032 76.4579 1.32C77.1939 1.608 77.8285 2.01333 78.3619 2.536C78.9059 3.048 79.3219 3.656 79.6099 4.36C79.9085 5.05333 80.0579 5.81067 80.0579 6.632C80.0579 7.56 79.8872 8.424 79.5459 9.224C79.2045 10.0133 78.7245 10.7067 78.1059 11.304C77.4979 11.9013 76.7885 12.3653 75.9779 12.696C75.1779 13.0267 74.3139 13.192 73.3859 13.192ZM73.3859 10.952C73.9619 10.952 74.5005 10.8453 75.0019 10.632C75.5139 10.4187 75.9619 10.12 76.3459 9.736C76.7299 9.352 77.0285 8.89867 77.2419 8.376C77.4659 7.84267 77.5779 7.26667 77.5779 6.648C77.5779 5.944 77.4232 5.33067 77.1139 4.808C76.8152 4.27467 76.3992 3.864 75.8659 3.576C75.3432 3.27733 74.7405 3.128 74.0579 3.128C73.4819 3.128 72.9379 3.23467 72.4259 3.448C71.9245 3.66133 71.4819 3.96 71.0979 4.344C70.7139 4.71733 70.4099 5.16533 70.1859 5.688C69.9725 6.21067 69.8659 6.78667 69.8659 7.416C69.8659 8.10933 70.0152 8.72267 70.3139 9.256C70.6232 9.78933 71.0392 10.2053 71.5619 10.504C72.0952 10.8027 72.7032 10.952 73.3859 10.952ZM80.3592 13L82.0232 1.08H84.5032L83.1432 10.84H88.1832L87.8792 13H80.3592ZM88.4692 13L90.1332 1.08H92.6132L90.9492 13H88.4692ZM92.423 13L94.087 1.08H102.247L101.943 3.24H96.263L95.847 6.264H100.727L100.423 8.424H95.543L94.903 13H92.423ZM101.174 13L102.838 1.08H110.854L110.55 3.24H105.014L104.646 5.944H109.862L109.558 8.104H104.342L103.958 10.84H109.494L109.19 13H101.174Z" fill="#1F2937"/>
</svg>
